<svg xmlns="http://www.w3.org/2000/svg" xmlns:xlink="http://www.w3.org/1999/xlink" viewBox="0 0 160.02 146.01"><defs><style>.cls-1{fill:none;}.cls-2{clip-path:url(#clip-path);}.cls-3{fill:#3c3c3c;fill-rule:evenodd;}.cls-4{fill:#4bb749;}</style><clipPath id="clip-path" transform="translate(12.19 0)"><path class="cls-1" d="M135.61,30.75a6.69,6.69,0,0,0-6.09-6.56C101.21,21.54,78.1,6.41,70.48.87a4.53,4.53,0,0,0-5.34,0c-7.61,5.54-30.72,20.67-59,23.32A6.7,6.7,0,0,0,0,30.75c-.34,22.34,3.24,98.17,66.08,115a6.57,6.57,0,0,0,3.41,0C132.35,128.93,135.94,53.09,135.61,30.75Z"/></clipPath></defs><g id="Layer_2" data-name="Layer 2"><g id="Layer_1-2" data-name="Layer 1"><g class="cls-2"><path id="screen" class="cls-3" d="M70.81,70V0h-6V146h6V76h77V70Zm-83-55a15,15,0,0,1,15-15h130a15,15,0,0,1,15,15V146h-160Z" transform="translate(12.19 0)"/><path class="cls-4" d="M14.5,0H77a0,0,0,0,1,0,0V146a0,0,0,0,1,0,0H0a0,0,0,0,1,0,0V14.5A14.5,14.5,0,0,1,14.5,0Z"/><path class="cls-4" d="M70.8,0h77a0,0,0,0,1,0,0V70a0,0,0,0,1,0,0H85.3A14.5,14.5,0,0,1,70.8,55.5V0A0,0,0,0,1,70.8,0Z" transform="translate(230.81 69.99) rotate(180)"/><rect class="cls-4" x="70.82" y="76.01" width="77.01" height="70" transform="translate(230.85 222.02) rotate(180)"/></g></g></g></svg>